{
  "accessors": [
    {
      "bufferView": 2,
      "componentType": 5126,
      "count": 1264,
      "max": [
        1.7862650156021118,
        1.6013720035552979,
        -0.17251299321651459
      ],
      "min": [
        -1.7862650156021118,
        -1.6013720035552979,
        -0.88844799995422363
      ],
      "type": "VEC3"
    },
    {
      "bufferView": 2,
      "byteOffset": 15168,
      "componentType": 5126,
      "count": 1264,
      "max": [
        0.99845403432846069,
        0.99993300437927246,
        0.98541420698165894
      ],
      "min": [
        -0.99845403432846069,
        -0.99993300437927246,
        -0.95474779605865479
      ],
      "type": "VEC3"
    },
    {
      "bufferView": 3,
      "componentType": 5126,
      "count": 1264,
      "max": [
        0,
        0,
        0,
        1
      ],
      "min": [
        0,
        0,
        0,
        1
      ],
      "type": "VEC4"
    },
    {
      "bufferView": 1,
      "componentType": 5126,
      "count": 1264,
      "max": [
        0.00030000001424923539,
        -0.00039999998989515007
      ],
      "min": [
        0.00030000001424923539,
        -0.00039999998989515007
      ],
      "type": "VEC2"
    },
    {
      "bufferView": 0,
      "componentType": 5125,
      "count": 4908,
      "max": [
        1263
      ],
      "min": [
        0
      ],
      "type": "SCALAR"
    },
    {
      "bufferView": 2,
      "byteOffset": 30336,
      "componentType": 5126,
      "count": 528,
      "max": [
        1.1067320108413696,
        1.1922550201416016,
        2.2456719875335693
      ],
      "min": [
        -1.1067320108413696,
        -1.0212080478668213,
        1.800104022026062
      ],
      "type": "VEC3"
    },
    {
      "bufferView": 2,
      "byteOffset": 36672,
      "componentType": 5126,
      "count": 528,
      "max": [
        1,
        1,
        0.99999964237213135
      ],
      "min": [
        -1,
        -1,
        0
      ],
      "type": "VEC3"
    },
    {
      "bufferView": 0,
      "byteOffset": 19632,
      "componentType": 5125,
      "count": 2880,
      "max": [
        527
      ],
      "min": [
        0
      ],
      "type": "SCALAR"
    },
    {
      "bufferView": 2,
      "byteOffset": 43008,
      "componentType": 5126,
      "count": 4,
      "max": [
        10,
        10,
        -5.0999999046325684
      ],
      "min": [
        -10,
        -10,
        -5.0999999046325684
      ],
      "type": "VEC3"
    },
    {
      "bufferView": 2,
      "byteOffset": 43056,
      "componentType": 5126,
      "count": 4,
      "max": [
        0,
        -0,
        1
      ],
      "min": [
        0,
        -0,
        1
      ],
      "type": "VEC3"
    },
    {
      "bufferView": 3,
      "byteOffset": 20224,
      "componentType": 5126,
      "count": 4,
      "max": [
        1,
        0,
        0,
        1
      ],
      "min": [
        1,
        0,
        0,
        1
      ],
      "type": "VEC4"
    },
    {
      "bufferView": 1,
      "byteOffset": 10112,
      "componentType": 5126,
      "count": 4,
      "max": [
        1,
        1
      ],
      "min": [
        0,
        0
      ],
      "type": "VEC2"
    },
    {
      "bufferView": 0,
      "byteOffset": 31152,
      "componentType": 5125,
      "count": 6,
      "max": [
        3
      ],
      "min": [
        0
      ],
      "type": "SCALAR"
    },
    {
      "bufferView": 2,
      "byteOffset": 43104,
      "componentType": 5126,
      "count": 288,
      "max": [
        1.803521990776062,
        1.803521990776062,
        -1.6000000238418579
      ],
      "min": [
        -1.803521990776062,
        -1.803521990776062,
        -1.6100000143051147
      ],
      "type": "VEC3"
    },
    {
      "bufferView": 2,
      "byteOffset": 46560,
      "componentType": 5126,
      "count": 288,
      "max": [
        0.99785929918289185,
        0.99785929918289185,
        1
      ],
      "min": [
        -0.99785929918289185,
        -0.99785929918289185,
        -1
      ],
      "type": "VEC3"
    },
    {
      "bufferView": 0,
      "byteOffset": 31176,
      "componentType": 5125,
      "count": 564,
      "max": [
        287
      ],
      "min": [
        0
      ],
      "type": "SCALAR"
    },
    {
      "bufferView": 2,
      "byteOffset": 50016,
      "componentType": 5126,
      "count": 1130,
      "max": [
        1.5548100471496582,
        0.17324699461460114,
        1.0974960327148438
      ],
      "min": [
        -1.5548100471496582,
        -1.5521759986877441,
        0.60039401054382324
      ],
      "type": "VEC3"
    },
    {
      "bufferView": 2,
      "byteOffset": 63576,
      "componentType": 5126,
      "count": 1130,
      "max": [
        0.99575448036193848,
        0.99575448036193848,
        0.97126710414886475
      ],
      "min": [
        -0.99575448036193848,
        -0.99575448036193848,
        -0.97825390100479126
      ],
      "type": "VEC3"
    },
    {
      "bufferView": 3,
      "byteOffset": 20288,
      "componentType": 5126,
      "count": 1130,
      "max": [
        0,
        0,
        0,
        1
      ],
      "min": [
        0,
        0,
        0,
        1
      ],
      "type": "VEC4"
    },
    {
      "bufferView": 1,
      "byteOffset": 10144,
      "componentType": 5126,
      "count": 1130,
      "max": [
        0,
        0
      ],
      "min": [
        0,
        0
      ],
      "type": "VEC2"
    },
    {
      "bufferView": 0,
      "byteOffset": 33432,
      "componentType": 5125,
      "count": 4800,
      "max": [
        1129
      ],
      "min": [
        0
      ],
      "type": "SCALAR"
    },
    {
      "bufferView": 2,
      "byteOffset": 77136,
      "componentType": 5126,
      "count": 3327,
      "max": [
        1.8445559740066528,
        1.8431220054626465,
        2.2809760570526123
      ],
      "min": [
        -1.8445559740066528,
        -1.8431220054626465,
        -1
      ],
      "type": "VEC3"
    },
    {
      "bufferView": 2,
      "byteOffset": 117060,
      "componentType": 5126,
      "count": 3327,
      "max": [
        0.99999845027923584,
        1,
        1
      ],
      "min": [
        -0.99999845027923584,
        -1,
        -1
      ],
      "type": "VEC3"
    },
    {
      "bufferView": 3,
      "byteOffset": 38368,
      "componentType": 5126,
      "count": 3327,
      "max": [
        1,
        1,
        0.94070827960968018,
        1
      ],
      "min": [
        -1,
        -1,
        -0.76869481801986694,
        -1
      ],
      "type": "VEC4"
    },
    {
      "bufferView": 1,
      "byteOffset": 19184,
      "componentType": 5126,
      "count": 3327,
      "max": [
        0.79519999027252197,
        0.98449999094009399
      ],
      "min": [
        0.00030000001424923539,
        -0.00039999998989515007
      ],
      "type": "VEC2"
    },
    {
      "bufferView": 0,
      "byteOffset": 52632,
      "componentType": 5125,
      "count": 13770,
      "max": [
        3326
      ],
      "min": [
        0
      ],
      "type": "SCALAR"
    },
    {
      "bufferView": 2,
      "byteOffset": 156984,
      "componentType": 5126,
      "count": 1858,
      "max": [
        1.1264469623565674,
        1.2081669569015503,
        3.0213859081268311
      ],
      "min": [
        -1.1264469623565674,
        -1.6076610088348389,
        0.35215699672698975
      ],
      "type": "VEC3"
    },
    {
      "bufferView": 2,
      "byteOffset": 179280,
      "componentType": 5126,
      "count": 1858,
      "max": [
        0.9999006986618042,
        0.93344616889953613,
        1
      ],
      "min": [
        -0.9999006986618042,
        -0.97543066740036011,
        -1
      ],
      "type": "VEC3"
    },
    {
      "bufferView": 3,
      "byteOffset": 91600,
      "componentType": 5126,
      "count": 1858,
      "max": [
        1,
        1,
        0.93344616889953613,
        1
      ],
      "min": [
        -0.99996411800384521,
        -1,
        -0.2135125994682312,
        -1
      ],
      "type": "VEC4"
    },
    {
      "bufferView": 1,
      "byteOffset": 45800,
      "componentType": 5126,
      "count": 1858,
      "max": [
        0.96249997615814209,
        0.84960001707077026
      ],
      "min": [
        0.33959999680519104,
        0.23379999399185181
      ],
      "type": "VEC2"
    },
    {
      "bufferView": 0,
      "byteOffset": 107712,
      "componentType": 5125,
      "count": 9402,
      "max": [
        1857
      ],
      "min": [
        0
      ],
      "type": "SCALAR"
    },
    {
      "bufferView": 2,
      "byteOffset": 201576,
      "componentType": 5126,
      "count": 2724,
      "max": [
        1.848997950553894,
        1.848997950553894,
        0.26251500844955444
      ],
      "min": [
        -1.848997950553894,
        -1.848997950553894,
        -1.5342999696731567
      ],
      "type": "VEC3"
    },
    {
      "bufferView": 2,
      "byteOffset": 234264,
      "componentType": 5126,
      "count": 2724,
      "max": [
        1,
        1,
        1
      ],
      "min": [
        -1,
        -1,
        -1
      ],
      "type": "VEC3"
    },
    {
      "bufferView": 3,
      "byteOffset": 121328,
      "componentType": 5126,
      "count": 2724,
      "max": [
        1,
        0.99993777275085449,
        0.9999992847442627,
        1
      ],
      "min": [
        -0.99684435129165649,
        -0.99993777275085449,
        -0.99999994039535522,
        -1
      ],
      "type": "VEC4"
    },
    {
      "bufferView": 1,
      "byteOffset": 60664,
      "componentType": 5126,
      "count": 2724,
      "max": [
        0.99910002946853638,
        0.99900001287460327
      ],
      "min": [
        0.00030000001424923539,
        0
      ],
      "type": "VEC2"
    },
    {
      "bufferView": 0,
      "byteOffset": 145320,
      "componentType": 5125,
      "count": 13140,
      "max": [
        2723
      ],
      "min": [
        0
      ],
      "type": "SCALAR"
    },
    {
      "bufferView": 2,
      "byteOffset": 266952,
      "componentType": 5126,
      "count": 2228,
      "max": [
        2.4000000953674316,
        2.4000000953674316,
        -0.58209902048110962
      ],
      "min": [
        -2.4000000953674316,
        -2.4000000953674316,
        -5
      ],
      "type": "VEC3"
    },
    {
      "bufferView": 2,
      "byteOffset": 293688,
      "componentType": 5126,
      "count": 2228,
      "max": [
        1,
        1,
        1
      ],
      "min": [
        -1,
        -1,
        -1
      ],
      "type": "VEC3"
    },
    {
      "bufferView": 3,
      "byteOffset": 164912,
      "componentType": 5126,
      "count": 2228,
      "max": [
        1,
        1,
        0.46480646729469299,
        1
      ],
      "min": [
        -1,
        -1,
        -0.18120202422142029,
        -1
      ],
      "type": "VEC4"
    },
    {
      "bufferView": 1,
      "byteOffset": 82456,
      "componentType": 5126,
      "count": 2228,
      "max": [
        0.99989998340606689,
        0.97259998321533203
      ],
      "min": [
        -9.9999997473787516e-05,
        0
      ],
      "type": "VEC2"
    },
    {
      "bufferView": 0,
      "byteOffset": 197880,
      "componentType": 5125,
      "count": 6204,
      "max": [
        2227
      ],
      "min": [
        0
      ],
      "type": "SCALAR"
    }
  ],
  "asset": {
    "extras": {
      "author": "Jon Ross (https://sketchfab.com/zlsa)",
      "license": "CC-BY-4.0 (http://creativecommons.org/licenses/by/4.0/)",
      "source": "https://sketchfab.com/3d-models/spacex-dragon-2-exterior-2575398db20c406cab2cf72b89a9be8b",
      "title": "SpaceX Dragon 2 exterior"
    },
    "generator": "Sketchfab-6.76.0",
    "version": "2.0"
  },
  "bufferViews": [
    {
      "buffer": 0,
      "byteLength": 222696,
      "byteOffset": 0,
      "name": "floatBufferViews",
      "target": 34963
    },
    {
      "buffer": 0,
      "byteLength": 100280,
      "byteOffset": 222696,
      "byteStride": 8,
      "name": "floatBufferViews",
      "target": 34962
    },
    {
      "buffer": 0,
      "byteLength": 320424,
      "byteOffset": 322976,
      "byteStride": 12,
      "name": "floatBufferViews",
      "target": 34962
    },
    {
      "buffer": 0,
      "byteLength": 200560,
      "byteOffset": 643400,
      "byteStride": 16,
      "name": "floatBufferViews",
      "target": 34962
    }
  ],
  "buffers": [
    {
      "byteLength": 843960,
      "uri": "scene.bin"
    }
  ],
  "images": [
    {
      "uri": "textures/body_baseColor.png"
    },
    {
      "uri": "textures/body_metallicRoughness.png"
    },
    {
      "uri": "textures/body_normal.png"
    },
    {
      "uri": "textures/ground_baseColor.png"
    },
    {
      "uri": "textures/ground_emissive.png"
    },
    {
      "uri": "textures/heatshield_baseColor.png"
    },
    {
      "uri": "textures/heatshield_metallicRoughness.png"
    },
    {
      "uri": "textures/heatshield_normal.png"
    },
    {
      "uri": "textures/trunk_baseColor.png"
    },
    {
      "uri": "textures/trunk_metallicRoughness.png"
    },
    {
      "uri": "textures/trunk_normal.png"
    }
  ],
  "materials": [
    {
      "doubleSided": true,
      "emissiveFactor": [
        0,
        0,
        0
      ],
      "name": "body",
      "normalTexture": {
        "index": 2,
        "scale": 1,
        "texCoord": 0
      },
      "pbrMetallicRoughness": {
        "baseColorFactor": [
          1,
          1,
          1,
          1
        ],
        "baseColorTexture": {
          "index": 0,
          "texCoord": 0
        },
        "metallicFactor": 0.40000000000000002,
        "metallicRoughnessTexture": {
          "index": 1,
          "texCoord": 0
        },
        "roughnessFactor": 0.5
      }
    },
    {
      "doubleSided": true,
      "emissiveFactor": [
        0,
        0,
        0
      ],
      "name": "draco_thruster",
      "pbrMetallicRoughness": {
        "baseColorFactor": [
          0.11673372238874435,
          0.11673372238874435,
          0.11673372238874435,
          1
        ],
        "metallicFactor": 1,
        "roughnessFactor": 0.59999999999999998
      }
    },
    {
      "doubleSided": true,
      "emissiveFactor": [
        0,
        0,
        0
      ],
      "name": "grey_plastic",
      "pbrMetallicRoughness": {
        "baseColorFactor": [
          1,
          1,
          1,
          1
        ],
        "metallicFactor": 0,
        "roughnessFactor": 0.59999999999999998
      }
    },
    {
      "alphaMode": "BLEND",
      "doubleSided": true,
      "emissiveFactor": [
        1,
        1,
        1
      ],
      "emissiveTexture": {
        "index": 4,
        "texCoord": 0
      },
      "name": "ground",
      "pbrMetallicRoughness": {
        "baseColorFactor": [
          0,
          0,
          0,
          1
        ],
        "baseColorTexture": {
          "index": 3,
          "texCoord": 0
        },
        "metallicFactor": 0,
        "roughnessFactor": 1
      }
    },
    {
      "doubleSided": true,
      "emissiveFactor": [
        0,
        0,
        0
      ],
      "name": "heatshield",
      "normalTexture": {
        "index": 7,
        "scale": 1,
        "texCoord": 0
      },
      "pbrMetallicRoughness": {
        "baseColorFactor": [
          1,
          1,
          1,
          1
        ],
        "baseColorTexture": {
          "index": 5,
          "texCoord": 0
        },
        "metallicFactor": 1,
        "metallicRoughnessTexture": {
          "index": 6,
          "texCoord": 0
        },
        "roughnessFactor": 0.59999999999999998
      }
    },
    {
      "doubleSided": true,
      "emissiveFactor": [
        0,
        0,
        0
      ],
      "name": "shiny_metal",
      "pbrMetallicRoughness": {
        "baseColorFactor": [
          1,
          1,
          1,
          1
        ],
        "metallicFactor": 0,
        "roughnessFactor": 0.59999999999999998
      }
    },
    {
      "doubleSided": true,
      "emissiveFactor": [
        0,
        0,
        0
      ],
      "name": "trunk",
      "normalTexture": {
        "index": 10,
        "scale": 1,
        "texCoord": 0
      },
      "pbrMetallicRoughness": {
        "baseColorFactor": [
          1,
          1,
          1,
          1
        ],
        "baseColorTexture": {
          "index": 8,
          "texCoord": 0
        },
        "metallicFactor": 1,
        "metallicRoughnessTexture": {
          "index": 9,
          "texCoord": 0
        },
        "roughnessFactor": 0.10000000000000001
      }
    },
    {
      "doubleSided": true,
      "emissiveFactor": [
        0,
        0,
        0
      ],
      "name": "windows",
      "pbrMetallicRoughness": {
        "baseColorFactor": [
          0.8282921314239502,
          0.72636514902114868,
          0.12385440617799759,
          1
        ],
        "metallicFactor": 1,
        "roughnessFactor": 0.14000000000000001
      }
    }
  ],
  "meshes": [
    {
      "primitives": [
        {
          "attributes": {
            "NORMAL": 1,
            "POSITION": 0,
            "TANGENT": 2,
            "TEXCOORD_0": 3
          },
          "indices": 4,
          "material": 1,
          "mode": 4
        }
      ]
    },
    {
      "primitives": [
        {
          "attributes": {
            "NORMAL": 6,
            "POSITION": 5
          },
          "indices": 7,
          "material": 2,
          "mode": 4
        }
      ]
    },
    {
      "primitives": [
        {
          "attributes": {
            "NORMAL": 9,
            "POSITION": 8,
            "TANGENT": 10,
            "TEXCOORD_0": 11
          },
          "indices": 12,
          "material": 3,
          "mode": 4
        }
      ]
    },
    {
      "primitives": [
        {
          "attributes": {
            "NORMAL": 14,
            "POSITION": 13
          },
          "indices": 15,
          "material": 5,
          "mode": 4
        }
      ]
    },
    {
      "primitives": [
        {
          "attributes": {
            "NORMAL": 17,
            "POSITION": 16,
            "TANGENT": 18,
            "TEXCOORD_0": 19
          },
          "indices": 20,
          "material": 7,
          "mode": 4
        }
      ]
    },
    {
      "primitives": [
        {
          "attributes": {
            "NORMAL": 22,
            "POSITION": 21,
            "TANGENT": 23,
            "TEXCOORD_0": 24
          },
          "indices": 25,
          "material": 0,
          "mode": 4
        }
      ]
    },
    {
      "primitives": [
        {
          "attributes": {
            "NORMAL": 27,
            "POSITION": 26,
            "TANGENT": 28,
            "TEXCOORD_0": 29
          },
          "indices": 30,
          "material": 0,
          "mode": 4
        }
      ]
    },
    {
      "primitives": [
        {
          "attributes": {
            "NORMAL": 32,
            "POSITION": 31,
            "TANGENT": 33,
            "TEXCOORD_0": 34
          },
          "indices": 35,
          "material": 4,
          "mode": 4
        }
      ]
    },
    {
      "primitives": [
        {
          "attributes": {
            "NORMAL": 37,
            "POSITION": 36,
            "TANGENT": 38,
            "TEXCOORD_0": 39
          },
          "indices": 40,
          "material": 6,
          "mode": 4
        }
      ]
    }
  ],
  "nodes": [
    {
      "children": [
        1
      ],
      "name": "RootNode (gltf orientation matrix)",
      "rotation": [
        -0.70710678118654746,
        -0,
        -0,
        0.70710678118654757
      ]
    },
    {
      "children": [
        2
      ],
      "name": "RootNode (model correction matrix)"
    },
    {
      "children": [
        3,
        4,
        5,
        6,
        7,
        8,
        9,
        10,
        11
      ],
      "name": "dragon-2.obj.cleaner.gles"
    },
    {
      "mesh": 0,
      "name": ""
    },
    {
      "mesh": 1,
      "name": ""
    },
    {
      "mesh": 2,
      "name": ""
    },
    {
      "mesh": 3,
      "name": ""
    },
    {
      "mesh": 4,
      "name": ""
    },
    {
      "mesh": 5,
      "name": ""
    },
    {
      "mesh": 6,
      "name": ""
    },
    {
      "mesh": 7,
      "name": ""
    },
    {
      "mesh": 8,
      "name": ""
    }
  ],
  "samplers": [
    {
      "magFilter": 9729,
      "minFilter": 9987,
      "wrapS": 10497,
      "wrapT": 10497
    }
  ],
  "scene": 0,
  "scenes": [
    {
      "name": "OSG_Scene",
      "nodes": [
        0
      ]
    }
  ],
  "textures": [
    {
      "sampler": 0,
      "source": 0
    },
    {
      "sampler": 0,
      "source": 1
    },
    {
      "sampler": 0,
      "source": 2
    },
    {
      "sampler": 0,
      "source": 3
    },
    {
      "sampler": 0,
      "source": 4
    },
    {
      "sampler": 0,
      "source": 5
    },
    {
      "sampler": 0,
      "source": 6
    },
    {
      "sampler": 0,
      "source": 7
    },
    {
      "sampler": 0,
      "source": 8
    },
    {
      "sampler": 0,
      "source": 9
    },
    {
      "sampler": 0,
      "source": 10
    }
  ]
}

